<svg xmlns="http://www.w3.org/2000/svg" width="140" height="140" viewBox="0 0 140 140">

  <!-- Blade 1 — top, indigo -->
  <path d="M 70 70
             C 62 50, 56 28, 62 16
             C 65 10, 68 8, 70 8
             C 72 8, 75 10, 78 16
             C 84 28, 78 50, 70 70 Z"
        fill="#5B2EFF"/>

  <!-- Blade 2 — lower-right, amber -->
  <path d="M 70 70
             C 88 76, 108 84, 118 100
             C 122 107, 122 114, 120 117
             C 117 120, 110 121, 104 119
             C 88 113, 80 92, 70 70 Z"
        fill="#FFB020"/>

  <!-- Blade 3 — lower-left, rose -->
  <path d="M 70 70
             C 52 76, 32 84, 22 100
             C 18 107, 18 114, 20 117
             C 23 120, 30 121, 36 119
             C 52 113, 60 92, 70 70 Z"
        fill="#FF5FA0"/>

  <!-- Hub -->
  <circle cx="70" cy="70" r="13" fill="#1A1040"/>
  <circle cx="70" cy="70" r="8"  fill="#FFFFFF"/>
  <circle cx="70" cy="70" r="4"  fill="#5B2EFF"/>

</svg>
